<svg width="15" height="16" viewBox="0 0 15 16" fill="none" xmlns="http://www.w3.org/2000/svg">
<path d="M5.43639 14.7109V12.4579C5.43639 11.8827 5.90605 11.4165 6.4854 11.4165H8.60322C8.88143 11.4165 9.14825 11.5262 9.34498 11.7215C9.54171 11.9168 9.65223 12.1817 9.65223 12.4579V14.7109C9.65047 14.95 9.74492 15.1799 9.91462 15.3496C10.0843 15.5193 10.3152 15.6148 10.5561 15.6148H12.001C12.6758 15.6165 13.3235 15.3516 13.8013 14.8785C14.2791 14.4054 14.5476 13.7631 14.5476 13.0932V6.67456C14.5476 6.13343 14.306 5.62013 13.8879 5.27295L8.97268 1.37594C8.11767 0.692659 6.89264 0.714721 6.06316 1.42834L1.26014 5.27295C0.822258 5.60989 0.560541 6.12471 0.547607 6.67456V13.0866C0.547607 14.4829 1.68778 15.6148 3.09426 15.6148H4.50614C5.00641 15.6148 5.41297 15.2141 5.4166 14.7175L5.43639 14.7109Z" fill="#9DA1A4"/>
</svg>
