<svg width="15" height="14" viewBox="0 0 15 14" fill="none" xmlns="http://www.w3.org/2000/svg">
<path fill-rule="evenodd" clip-rule="evenodd" d="M11.0049 0.578125C11.9436 0.578125 12.8466 0.949125 13.5109 1.61483C14.1759 2.27913 14.5476 3.17513 14.5476 4.11313V9.64313C14.5476 11.5961 12.9586 13.1781 11.0049 13.1781H4.08961C2.13591 13.1781 0.547607 11.5961 0.547607 9.64313V4.11313C0.547607 2.16013 2.12891 0.578125 4.08961 0.578125H11.0049ZM12.1186 5.15636L12.1746 5.10036C12.3419 4.89736 12.3419 4.60336 12.1669 4.40036C12.0696 4.29606 11.9359 4.23236 11.7966 4.21836C11.6496 4.21066 11.5096 4.26036 11.4039 4.35836L8.24764 6.87836C7.84164 7.21506 7.25994 7.21506 6.84764 6.87836L3.69764 4.35836C3.47994 4.19736 3.17894 4.21836 2.99764 4.40736C2.80864 4.59636 2.78764 4.89736 2.94794 5.10736L3.03964 5.19836L6.22464 7.68336C6.61664 7.99136 7.09194 8.15936 7.58964 8.15936C8.08594 8.15936 8.56964 7.99136 8.96094 7.68336L12.1186 5.15636Z" fill="#9DA1A4"/>
</svg>
