<svg width="19" height="18" viewBox="0 0 19 18" fill="none" xmlns="http://www.w3.org/2000/svg">
<path fill-rule="evenodd" clip-rule="evenodd" d="M19 7.86686V7.99954H17V16H18C18.5523 16 19 16.4477 19 17C19 17.5523 18.5523 18 18 18H1C0.447715 18 0 17.5523 0 17C0 16.4477 0.447715 16 1 16H2V7.99954H0V7.86686C0.0175523 7.12064 0.372741 6.42195 0.967012 5.96467L7.48539 0.746979C8.61111 -0.221498 10.2737 -0.251438 11.434 0.675869L18.1046 5.96467C18.6721 6.43584 19 7.13246 19 7.86686ZM14 16V7.99954H11V16H14ZM8 16V7.99954H5V16H8ZM9.5 6C10.3284 6 11 5.32843 11 4.5C11 3.67157 10.3284 3 9.5 3C8.67157 3 8 3.67157 8 4.5C8 5.32843 8.67157 6 9.5 6Z" fill="white"/>
</svg>
