<svg width="15" height="15" viewBox="0 0 15 15" fill="none" xmlns="http://www.w3.org/2000/svg">
<path fill-rule="evenodd" clip-rule="evenodd" d="M6.6407 1.94092C6.17146 1.94092 5.77226 2.26699 5.6602 2.70648H9.42809C9.31603 2.26699 8.91683 1.94092 8.4476 1.94092H6.6407ZM10.4926 2.70678H11.8793C13.35 2.70678 14.5476 3.91893 14.5476 5.40753C14.5476 5.40753 14.5056 6.0377 14.4916 6.91527C14.4902 6.98473 14.4566 7.05278 14.4012 7.0939C14.0644 7.34271 13.7562 7.54828 13.7282 7.56245C12.5656 8.3422 11.2146 8.89085 9.77542 9.16376C9.68157 9.18219 9.58913 9.13328 9.5415 9.04963C9.1381 8.3507 8.38453 7.89562 7.54411 7.89562C6.70929 7.89562 5.94871 8.34574 5.5334 9.04538C5.48508 9.12761 5.39403 9.1751 5.30088 9.15738C3.87357 8.88376 2.52259 8.33582 1.36702 7.56954L0.694681 7.1017C0.638653 7.06625 0.603635 7.00246 0.603635 6.93157C0.582625 6.57005 0.547607 5.40753 0.547607 5.40753C0.547607 3.91893 1.74521 2.70678 3.21594 2.70678H4.59563C4.7287 1.67894 5.59013 0.87793 6.64065 0.87793H8.44756C9.49808 0.87793 10.3595 1.67894 10.4926 2.70678ZM14.3095 8.4483L14.2815 8.46248C12.8668 9.41235 11.1649 10.0432 9.37906 10.3055C9.12693 10.341 8.8748 10.1779 8.80477 9.92273C8.65069 9.34146 8.15344 8.95868 7.55815 8.95868H7.55114H7.53714C6.94184 8.95868 6.44459 9.34146 6.29051 9.92273C6.22048 10.1779 5.96835 10.341 5.71623 10.3055C3.93033 10.0432 2.22848 9.41235 0.813774 8.46248C0.80677 8.45539 0.736735 8.41286 0.680707 8.4483C0.617676 8.48375 0.617676 8.56881 0.617676 8.56881L0.6667 12.184C0.6667 13.6726 1.8573 14.8776 3.32803 14.8776H11.7602C13.231 14.8776 14.4216 13.6726 14.4216 12.184L14.4776 8.56881C14.4776 8.56881 14.4776 8.48375 14.4146 8.4483C14.3796 8.42704 14.3375 8.43413 14.3095 8.4483ZM8.06937 11.4183C8.06937 11.7161 7.83826 11.95 7.54411 11.95C7.25697 11.95 7.01885 11.7161 7.01885 11.4183V10.5039C7.01885 10.2133 7.25697 9.97227 7.54411 9.97227C7.83826 9.97227 8.06937 10.2133 8.06937 10.5039V11.4183Z" fill="#9DA1A4"/>
</svg>
